<?xml version="1.0" standalone="no"?>
<!DOCTYPE svg PUBLIC "-//W3C//DTD SVG 20010904//EN"
 "http://www.w3.org/TR/2001/REC-SVG-20010904/DTD/svg10.dtd">
<svg version="1.0" xmlns="http://www.w3.org/2000/svg"
 width="500.000000pt" height="500.000000pt" viewBox="0 0 500.000000 500.000000"
 preserveAspectRatio="xMidYMid meet">
<metadata>
Created by potrace 1.14, written by Peter Selinger 2001-2017
</metadata>
<g transform="translate(0.000000,500.000000) scale(0.100000,-0.100000)"
fill="#000000" stroke="none">
<path d="M2240 3921 c-14 -4 -40 -6 -57 -6 -18 0 -33 -2 -33 -6 0 -4 -44 -21
-97 -39 -122 -39 -273 -112 -378 -182 -101 -67 -122 -84 -218 -184 -194 -200
-325 -446 -384 -724 -26 -121 -26 -439 0 -560 72 -338 242 -620 507 -842 158
-132 429 -253 656 -293 130 -23 386 -20 517 5 354 68 665 263 883 553 239 318
331 734 253 1142 -10 55 -19 101 -19 102 0 1 -7 9 -16 18 -9 8 -18 33 -20 54
-4 48 -33 123 -44 116 -5 -3 -6 3 -4 12 3 10 -18 59 -47 108 -222 388 -597
652 -1020 720 -102 16 -418 20 -479 6z"/>
<path d="M3627 3439 c7 -7 15 -10 18 -7 3 3 -2 9 -12 12 -14 6 -15 5 -6 -5z"/>
</g>
</svg>
